<svg width="211.0399963378906px" height="151.5199981689453px" xmlns="http://www.w3.org/2000/svg" viewBox="144.4800018310547 -0.7599990844726534 211.0399963378906 151.5199981689453" style="background: rgb(253, 253, 253);" preserveAspectRatio="xMidYMid"><defs><filter id="editing-raise" x="-100%" y="-100%" width="300%" height="300%"><feFlood flood-color="#000000" result="flood-surface"></feFlood><feFlood flood-color="#ffffff" result="flood-extrude"></feFlood><feMorphology operator="erode" in="SourceAlpha" radius="1" result="erode"></feMorphology><feConvolveMatrix in="erode" result="shadow" order="11,8" divisor="1" kernelMatrix="0 0 0 1 1 1 1 1 0 0 0 0 0 1 0 0 0 0 0 1 0 0 0 0 1 0 0 0 0 0 1 0 0 0 0 1 0 0 0 0 0 1 0 0 0 0 1 0 0 0 0 0 1 0 0 0 0 0 1 0 0 0 1 0 0 0 0 0 0 1 1 0 1 1 0 0 0 0 0 0 0 0 1 0 0 0 0 0"></feConvolveMatrix><feOffset dx="0" dy="4" in="shadow" result="offset"></feOffset><feGaussianBlur in="offset" stdDeviation="0.2" result="blur"></feGaussianBlur><feComposite operator="in" in="flood-extrude" in2="blur" result="extrude"></feComposite><feMorphology operator="erode" in="SourceAlpha" radius="1" result="erode2"></feMorphology><feConvolveMatrix in="erode2" result="out" order="4,4" divisor="1" kernelMatrix="0 1 1 0 1 0 0 1 1 0 0 1 0 1 1 0 "></feConvolveMatrix><feComposite operator="in" in="flood-surface" in2="out" result="text"></feComposite><feMerge><feMergeNode in="extrude"></feMergeNode><feMergeNode in="text"></feMergeNode></feMerge></filter></defs><g filter="url(#editing-raise)"><g transform="translate(179.15502190589905, 102.49000358581543)"><path d="M25.15 0L2.43 0L2.43-54.98L24.45-54.98L24.45-44.35L13.63-44.35L13.63-33.66L24-33.66L24-23.30L13.63-23.30L13.63-10.69L25.15-10.69L25.15 0ZM39.55 0L28.80 0L28.80-54.98L40.13-54.98L45.18-28.67L45.18-54.98L55.81-54.98L55.81 0L45.06 0L39.55-27.52L39.55 0ZM76.42 0L65.41 0L65.41-44.42L58.88-44.42L58.88-54.98L82.94-54.98L82.94-44.42L76.42-44.42L76.42 0ZM108.74 0L86.02 0L86.02-54.98L108.03-54.98L108.03-44.35L97.22-44.35L97.22-33.66L107.58-33.66L107.58-23.30L97.22-23.30L97.22-10.69L108.74-10.69L108.74 0ZM112.38 0L112.38-54.98L129.28-54.98L129.28-54.98Q133.31-54.98 135.52-53.15L135.52-53.15L135.52-53.15Q137.73-51.33 138.50-48.03L138.50-48.03L138.50-48.03Q139.26-44.74 139.26-39.62L139.26-39.62L139.26-39.62Q139.26-34.94 138.05-32.32L138.05-32.32L138.05-32.32Q136.83-29.70 133.82-28.67L133.82-28.67L133.82-28.67Q136.32-28.16 137.44-26.18L137.44-26.18L137.44-26.18Q138.56-24.19 138.56-20.80L138.56-20.80L138.43 0L127.68 0L127.68-21.50L127.68-21.50Q127.68-23.81 126.78-24.45L126.78-24.45L126.78-24.45Q125.89-25.09 123.52-25.09L123.52-25.09L123.52 0L112.38 0ZM123.58-34.62L126.21-34.62L126.21-34.62Q128.51-34.62 128.51-39.62L128.51-39.62L128.51-39.62Q128.51-41.79 128.32-42.88L128.32-42.88L128.32-42.88Q128.13-43.97 127.62-44.38L127.62-44.38L127.62-44.38Q127.10-44.80 126.14-44.80L126.14-44.80L123.58-44.80L123.58-34.62Z"></path></g></g><style>text {
  font-size: 64px;
  font-family: Arial Black;
  dominant-baseline: central;
  text-anchor: middle;
}</style></svg>